<svg width="21" height="23" viewBox="0 0 21 23" fill="none" xmlns="http://www.w3.org/2000/svg">
<g clip-path="url(#clip0_204_9)">
<path d="M20.9222 11.0203C20.7568 10.7616 16.7825 4.70299 10.4999 4.70299C5.10898 4.70299 0.305151 10.7269 0.103023 10.9837C-0.0343409 11.1586 -0.0343409 11.4154 0.103023 11.5913C0.305151 11.8481 5.10898 17.872 10.4999 17.872C15.8909 17.872 20.6947 11.8481 20.8968 11.5913C21.0237 11.4295 21.0351 11.1953 20.9222 11.0203ZM10.4999 16.9313C6.17827 16.9313 2.06918 12.5009 1.02531 11.2875C2.06746 10.0731 6.17216 5.64366 10.4999 5.64366C15.5566 5.64366 19.1258 10.0675 19.9973 11.2621C18.9911 12.4369 14.8584 16.9313 10.4999 16.9313Z" fill="#FCFDFF"/>
<path d="M10.4999 7.52492C8.56965 7.52492 6.99988 9.21243 6.99988 11.2875C6.99988 13.3625 8.56965 15.05 10.4999 15.05C12.4302 15.05 14 13.3625 14 11.2875C14 9.21243 12.4302 7.52492 10.4999 7.52492ZM10.4999 14.1094C9.05266 14.1094 7.87488 12.8433 7.87488 11.2875C7.87488 9.7317 9.05266 8.46559 10.4999 8.46559C11.9472 8.46559 13.125 9.7317 13.125 11.2875C13.125 12.8433 11.9472 14.1094 10.4999 14.1094Z" fill="#FCFDFF"/>
</g>
<defs>
<clipPath id="clip0_204_9">
<rect width="21" height="22.575" fill="white"/>
</clipPath>
</defs>
</svg>
