<svg width="19" height="17" viewBox="0 0 19 17" fill="none" xmlns="http://www.w3.org/2000/svg">
<g clip-path="url(#clip0_210_102)">
<path d="M18.6269 8.02994C18.6266 8.02974 18.6265 8.02951 18.6262 8.02931L14.9389 4.57619C14.6627 4.3175 14.2159 4.31846 13.9409 4.57844C13.666 4.83839 13.667 5.25884 13.9433 5.51756L16.4189 7.83594H1.47411C1.08437 7.83594 0.768433 8.13324 0.768433 8.5C0.768433 8.86676 1.08437 9.16406 1.47411 9.16406H16.4189L13.9433 11.4824C13.6671 11.7412 13.666 12.1616 13.9409 12.4216C14.2159 12.6816 14.6627 12.6825 14.9389 12.4238L18.6263 8.97068C18.6265 8.97049 18.6266 8.97025 18.6269 8.97005C18.9033 8.71047 18.9024 8.28866 18.6269 8.02994Z" fill="#3B4254"/>
</g>
<defs>
<clipPath id="clip0_210_102">
<rect width="18.0654" height="17" fill="white" transform="translate(0.768433)"/>
</clipPath>
</defs>
</svg>
