<svg width="16" height="16" viewBox="0 0 16 16" fill="none" xmlns="http://www.w3.org/2000/svg">
<g clip-path="url(#clip0_210_10)">
<path d="M15.7983 14.8474L11.2077 10.2535C12.1127 9.16815 12.657 7.78113 12.657 6.26622C12.657 2.81012 9.82068 0 6.3318 0C2.84291 0 0 2.8134 0 6.2695C0 9.72559 2.83636 12.5357 6.32524 12.5357C7.80736 12.5357 9.17143 12.0275 10.2535 11.1782L14.8605 15.7852C15.1294 16.0541 15.5295 16.0541 15.7983 15.7852C16.0672 15.5163 16.0672 15.1163 15.7983 14.8474ZM1.3444 6.2695C1.3444 3.55446 3.58069 1.34768 6.32524 1.34768C9.06978 1.34768 11.3061 3.55446 11.3061 6.2695C11.3061 8.98453 9.06978 11.1913 6.32524 11.1913C3.58069 11.1913 1.3444 8.98125 1.3444 6.2695Z" fill="white"/>
</g>
<defs>
<clipPath id="clip0_210_10">
<rect width="16" height="16" fill="white"/>
</clipPath>
</defs>
</svg>
