<svg width="67" height="63" viewBox="0 0 67 63" fill="none" xmlns="http://www.w3.org/2000/svg">
<g clip-path="url(#clip0_204_20)">
<path d="M67 50.681V45.1375H60.7065V41.4418H58.6086V38.362H60.7065V32.8185H45.0194V34.6663H58.7397V36.5142H18.047V38.362H56.6418V41.4418H13.8326C12.9288 41.4418 12.1936 40.751 12.1936 39.9019C12.1936 39.0528 12.9288 38.362 13.8326 38.362H16.0803V36.5142H13.8326C11.8444 36.5142 10.2269 38.0339 10.2269 39.9019C10.2269 41.77 11.8444 43.2896 13.8326 43.2896H58.7396V45.1375H24.8462V46.9853H65.0331V48.8332H9.50574C6.43305 48.8332 3.93333 51.1818 3.93333 54.0687C3.93333 56.9557 6.43305 59.3043 9.50574 59.3043H55.8269V57.4565H9.50587C7.51764 57.4565 5.9002 55.9368 5.9002 54.0687C5.9002 52.2007 7.51764 50.681 9.50587 50.681H62.9354V53.7608H19.3395V55.6086H62.9354V57.4565H57.7937V59.3043H65.0333V61.1522H9.50587C5.34872 61.1522 1.96673 57.9746 1.96673 54.0687C1.96673 50.1629 5.34872 46.9853 9.50587 46.9853H22.8796V45.1375H13.8327C10.76 45.1375 8.26027 42.7889 8.26027 39.9019C8.26027 37.0149 10.76 34.6663 13.8327 34.6663H43.0527V32.8185H13.8327C9.67554 32.8185 6.29354 35.996 6.29354 39.9019C6.29354 41.989 7.25973 43.8676 8.79339 45.1652C3.88364 45.509 0 49.3694 0 54.0687C0 58.9935 4.26427 63 9.50587 63H67V57.4565H64.9022V50.681H67Z" fill="black"/>
<path d="M15.406 53.7608H17.3727V55.6086H15.406V53.7608Z" fill="black"/>
<path d="M18.0939 27.4613L18.5319 27.7357C18.7026 27.8426 22.8356 30.3547 33.5 30.3547C44.1644 30.3547 48.2974 27.8426 48.4681 27.7357L48.9061 27.4613V11.9057L54.8063 10.0578V18.7808C53.2948 19.1841 52.1839 20.4918 52.1839 22.0394V26.659H59.3953V22.0394C59.3953 20.4918 58.2845 19.1841 56.773 18.7808V9.44188L60.2104 8.36533L49.883 5.13086L49.261 6.88385L53.9911 8.3652L33.5 14.7828L13.0089 8.36533L33.5 1.94788L47.3952 6.29968L48.0172 4.54669L33.5 0L6.78955 8.36533L18.0939 11.9057V27.4613ZM57.4286 22.0394V24.8112H54.1507V22.0394C54.1507 21.1902 54.8858 20.4995 55.7896 20.4995C56.6934 20.4995 57.4286 21.1902 57.4286 22.0394ZM20.0607 12.5216L33.5 16.7307L46.9393 12.5216V19.7604H44.5137V21.6082H46.9393V23.4561H42.6781V25.3039H46.9393V26.4178C45.672 26.9977 41.5944 28.5069 33.5 28.5069C25.3994 28.5069 21.3217 26.9953 20.0607 26.4183V12.5216Z" fill="black"/>
<path d="M11.4727 53.7608H13.4394V55.6086H11.4727V53.7608Z" fill="black"/>
<path d="M38.7446 23.4561H40.7114V25.3039H38.7446V23.4561Z" fill="black"/>
</g>
<defs>
<clipPath id="clip0_204_20">
<rect width="67" height="63" fill="white"/>
</clipPath>
</defs>
</svg>
