<svg width="21" height="23" fill="none" xmlns="http://www.w3.org/2000/svg"><g clip-path="url(#clip0_204_9)" fill="#FCFDFF"><path d="M20.922 11.02c-.165-.258-4.14-6.317-10.422-6.317-5.391 0-10.195 6.024-10.397 6.28a.5.5 0 000 .608c.202.257 5.006 6.281 10.397 6.281 5.39 0 10.195-6.024 10.397-6.28a.498.498 0 00.025-.572zM10.5 16.931c-4.322 0-8.43-4.43-9.475-5.644 1.042-1.214 5.147-5.643 9.475-5.643 5.057 0 8.626 4.424 9.497 5.618-1.006 1.175-5.139 5.67-9.497 5.67z"/><path d="M10.5 7.525c-1.93 0-3.5 1.687-3.5 3.762s1.57 3.763 3.5 3.763 3.5-1.688 3.5-3.763-1.57-3.762-3.5-3.762zm0 6.584c-1.447 0-2.625-1.266-2.625-2.822 0-1.555 1.178-2.821 2.625-2.821s2.625 1.266 2.625 2.822c0 1.555-1.178 2.821-2.625 2.821z"/></g><defs><clipPath id="clip0_204_9"><path fill="#fff" d="M0 0h21v22.575H0z"/></clipPath></defs></svg>