<svg width="67" height="63" fill="none" xmlns="http://www.w3.org/2000/svg"><g clip-path="url(#clip0_204_20)" fill="#000"><path d="M67 50.681v-5.543h-6.294v-3.696H58.61v-3.08h2.097v-5.544H45.02v1.848h13.72v1.848H18.048v1.848h38.595v3.08h-42.81c-.903 0-1.638-.691-1.638-1.54 0-.85.735-1.54 1.639-1.54h2.247v-1.848h-2.247c-1.989 0-3.606 1.52-3.606 3.388 0 1.868 1.617 3.388 3.606 3.388H58.74v1.848H24.846v1.847h40.187v1.848H9.506c-3.073 0-5.573 2.349-5.573 5.236 0 2.887 2.5 5.235 5.573 5.235h46.32v-1.848H9.507c-1.988 0-3.606-1.52-3.606-3.387 0-1.868 1.618-3.388 3.606-3.388h53.43v3.08H19.34v1.848h43.595v1.847h-5.141v1.848h7.24v1.848H9.505c-4.157 0-7.54-3.177-7.54-7.083s3.383-7.084 7.54-7.084H22.88v-1.847h-9.047c-3.073 0-5.573-2.35-5.573-5.236 0-2.887 2.5-5.236 5.573-5.236h29.22V32.82h-29.22c-4.157 0-7.54 3.177-7.54 7.083 0 2.087.967 3.966 2.5 5.263C3.883 45.51 0 49.37 0 54.07 0 58.993 4.264 63 9.506 63H67v-5.544h-2.098v-6.775H67z"/><path d="M15.406 53.76h1.967v1.849h-1.967V53.76zm2.688-26.299l.438.275c.17.107 4.304 2.619 14.968 2.619s14.797-2.512 14.968-2.62l.438-.274V11.906l5.9-1.848v8.723c-1.511.403-2.622 1.71-2.622 3.258v4.62h7.211v-4.62c0-1.547-1.11-2.855-2.622-3.258V9.44l3.437-1.076L49.883 5.13l-.622 1.753 4.73 1.481L33.5 14.783 13.009 8.365 33.5 1.948 47.395 6.3l.622-1.753L33.5 0 6.79 8.365l11.304 3.54v15.556zm39.335-5.422v2.772H54.15V22.04c0-.849.735-1.54 1.639-1.54.903 0 1.639.691 1.639 1.54zM20.06 12.522L33.5 16.73l13.44-4.21v7.24h-2.426v1.847h2.425v1.848h-4.26v1.848h4.26v1.114c-1.267.58-5.345 2.089-13.439 2.089-8.1 0-12.178-1.512-13.44-2.089V12.522zM11.473 53.76h1.966v1.849h-1.966V53.76z"/><path d="M38.745 23.456h1.966v1.848h-1.966v-1.848z"/></g><defs><clipPath id="clip0_204_20"><path fill="#fff" d="M0 0h67v63H0z"/></clipPath></defs></svg>