<svg width="19" height="17" fill="none" xmlns="http://www.w3.org/2000/svg"><g clip-path="url(#clip0_210_102)"><path d="M18.627 8.03l-3.688-3.454a.737.737 0 00-.998.002.637.637 0 00.002.94l2.476 2.318H1.474c-.39 0-.706.297-.706.664 0 .367.316.664.706.664H16.42l-2.476 2.318a.637.637 0 00-.002.94c.275.26.722.26.998.002l3.687-3.453a.637.637 0 000-.941z" fill="#3B4254"/></g><defs><clipPath id="clip0_210_102"><path fill="#fff" transform="translate(.768)" d="M0 0h18.065v17H0z"/></clipPath></defs></svg>