<svg width="16" height="16" fill="none" xmlns="http://www.w3.org/2000/svg"><g clip-path="url(#clip0_210_10)"><path d="M15.798 14.847l-4.59-4.593a6.201 6.201 0 001.449-3.988C12.657 2.81 9.821 0 6.332 0 2.842 0 0 2.813 0 6.27c0 3.456 2.836 6.266 6.325 6.266a6.342 6.342 0 003.929-1.358l4.607 4.607a.646.646 0 00.937 0 .646.646 0 000-.938zM1.344 6.27c0-2.716 2.237-4.922 4.981-4.922 2.745 0 4.981 2.206 4.981 4.921 0 2.716-2.236 4.922-4.98 4.922-2.745 0-4.982-2.21-4.982-4.922z" fill="#fff"/></g><defs><clipPath id="clip0_210_10"><path fill="#fff" d="M0 0h16v16H0z"/></clipPath></defs></svg>